<?xml version="1.0" encoding="utf-8"?>
<!-- Generator: Adobe Illustrator 22.1.0, SVG Export Plug-In . SVG Version: 6.00 Build 0)  -->
<svg version="1.1" id="Layer_1" xmlns="http://www.w3.org/2000/svg" xmlns:xlink="http://www.w3.org/1999/xlink" x="0px" y="0px"
	 viewBox="0 0 9.2 20" style="enable-background:new 0 0 9.2 20;" xml:space="preserve">
<style type="text/css">
	.st0{fill-rule:evenodd;clip-rule:evenodd;fill:#FFFFFF;}
</style>
<path class="st0" d="M2,10c0.1,0.1,0,0.5,0,0.6l0,9.4h4.1c0-2.5,0-5,0-7.5c0,0,0-2.4,0-2.5c0,0,0,0,0,0c0,0,2.6,0,2.7,0l0,0l0.4-3.4
	l-3.1,0c0-0.5,0-1,0-1.5c0-0.5,0-1,0.3-1.3l2.8-0.3l0-3.4C8.7,0,8.1,0,7.5,0C6.9,0,6.4,0,5.8,0C4.8,0.1,3.9,0.4,3.3,0.9
	C2.4,2.4,2.1,1.2,2,6.6l-2,0L0,10L2,10L2,10z"/>
</svg>
