<?xml version="1.0" encoding="utf-8"?>
<!-- Generator: Adobe Illustrator 22.1.0, SVG Export Plug-In . SVG Version: 6.00 Build 0)  -->
<svg version="1.1" id="Logo" xmlns="http://www.w3.org/2000/svg" xmlns:xlink="http://www.w3.org/1999/xlink" x="0px" y="0px"
	 viewBox="0 0 369.9 376" style="enable-background:new 0 0 369.9 376;" xml:space="preserve">
<style type="text/css">
	.st0{clip-path:url(#SVGID_2_);}
	.st1{fill:#FFFFFF;}
</style>
<g>
	<g>
		<defs>
			<path id="SVGID_1_" d="M182.5,32.9c48.7,0,54.5,0.2,73.7,1.1c17.8,0.8,27.5,3.8,33.9,6.3c8.5,3.3,14.6,7.3,21,13.7
				c6.4,6.4,10.3,12.5,13.7,21c2.5,6.4,5.5,16.1,6.3,33.9c0.9,19.2,1.1,25,1.1,73.7s-0.2,54.5-1.1,73.7c-0.8,17.8-3.8,27.5-6.3,33.9
				c-3.3,8.5-7.3,14.6-13.7,21c-6.4,6.4-12.5,10.3-21,13.7c-6.4,2.5-16.1,5.5-33.9,6.3c-19.2,0.9-25,1.1-73.7,1.1
				s-54.5-0.2-73.7-1.1c-17.8-0.8-27.5-3.8-33.9-6.3c-8.5-3.3-14.6-7.3-21-13.7c-6.4-6.4-10.3-12.5-13.7-21
				c-2.5-6.4-5.5-16.1-6.3-33.9c-0.9-19.2-1.1-25-1.1-73.7s0.2-54.5,1.1-73.7c0.8-17.8,3.8-27.5,6.3-33.9c3.3-8.5,7.3-14.6,13.7-21
				c6.4-6.4,12.5-10.3,21-13.7c6.4-2.5,16.1-5.5,33.9-6.3C128,33.1,133.8,32.9,182.5,32.9 M182.5,0c-49.6,0-55.8,0.2-75.2,1.1
				C87.8,2,74.6,5.1,63,9.6c-12,4.7-22.2,10.9-32.3,21C20.5,40.8,14.2,51,9.6,63C5.1,74.6,2,87.8,1.1,107.3
				C0.2,126.7,0,132.9,0,182.5c0,49.6,0.2,55.8,1.1,75.2c0.9,19.4,4,32.7,8.5,44.3c4.7,12,10.9,22.2,21,32.3
				c10.1,10.1,20.3,16.4,32.3,21c11.6,4.5,24.9,7.6,44.3,8.5c19.5,0.9,25.7,1.1,75.2,1.1s55.8-0.2,75.2-1.1
				c19.4-0.9,32.7-4,44.3-8.5c12-4.7,22.2-10.9,32.3-21c10.1-10.1,16.4-20.3,21-32.3c4.5-11.6,7.6-24.9,8.5-44.3
				c0.9-19.5,1.1-25.7,1.1-75.2s-0.2-55.8-1.1-75.2c-0.9-19.4-4-32.7-8.5-44.3c-4.7-12-10.9-22.2-21-32.3
				C324.2,20.5,314,14.2,302,9.6c-11.6-4.5-24.9-7.6-44.3-8.5C238.3,0.2,232.1,0,182.5,0L182.5,0z"/>
		</defs>
		<use xlink:href="#SVGID_1_"  style="overflow:visible;fill:#C4329A;"/>
		<clipPath id="SVGID_2_">
			<use xlink:href="#SVGID_1_"  style="overflow:visible;"/>
		</clipPath>
		<g class="st0">
			<defs>
				<rect id="SVGID_3_" x="-5" y="-5" width="375" height="375"/>
			</defs>
			<use xlink:href="#SVGID_3_"  style="overflow:visible;fill:#FFFFFF;"/>
			<clipPath id="SVGID_4_">
				<use xlink:href="#SVGID_3_"  style="overflow:visible;"/>
			</clipPath>
		</g>
	</g>
</g>
<g>
	<defs>
		<path id="SVGID_5_" d="M182.5,90.8c-51.8,0-93.7,42-93.7,93.7s42,93.7,93.7,93.7s93.7-42,93.7-93.7S234.3,90.8,182.5,90.8z
			 M182.5,245.3c-33.6,0-60.8-27.2-60.8-60.8s27.2-60.8,60.8-60.8s60.8,27.2,60.8,60.8S216.1,245.3,182.5,245.3z"/>
	</defs>
	<use xlink:href="#SVGID_5_"  style="overflow:visible;fill:#FFFFFF;"/>
	<clipPath id="SVGID_6_">
		<use xlink:href="#SVGID_5_"  style="overflow:visible;"/>
	</clipPath>
</g>
<circle class="st1" cx="279.9" cy="86.1" r="21.9"/>
</svg>
