<?xml version="1.0" encoding="iso-8859-1"?>
<!-- Generator: Adobe Illustrator 22.1.0, SVG Export Plug-In . SVG Version: 6.00 Build 0)  -->
<svg version="1.1" id="&#x421;&#x43B;&#x43E;&#x439;_1"
	 xmlns="http://www.w3.org/2000/svg" xmlns:xlink="http://www.w3.org/1999/xlink" x="0px" y="0px" viewBox="0 0 27.9 30"
	 style="enable-background:new 0 0 27.9 30;" xml:space="preserve">
<g>
	<path style="fill:#0084FF;" d="M14,2.7c6.3,0,11.4,4.8,11.4,10.6C25.4,19.3,20.3,24,14,24c-1.2,0-2.3-0.2-3.4-0.5l-3.8,2.2v-4.1v0
		c-2.6-2-4.2-4.9-4.2-8.3C2.6,7.5,7.7,2.7,14,2.7 M14,0.2C6.3,0.2,0.1,6.1,0.1,13.4c0,3.6,1.5,7,4.2,9.4v2.9V30L8,27.9l3-1.7
		c1,0.2,2,0.3,3,0.3c7.7,0,13.9-5.9,13.9-13.1S21.6,0.2,14,0.2L14,0.2z"/>
</g>
<path style="fill:#FFFFFF;" d="M12.8,10.5L6.6,17l5.6-3.1l2.9,3.1l6.1-6.5l-5.5,3L12.8,10.5z"/>
<path style="fill:#0084FF;" d="M12.8,10.5L6.6,17l5.6-3.1l2.9,3.1l6.1-6.5l-5.5,3L12.8,10.5z"/>
</svg>
