<?xml version="1.0" encoding="iso-8859-1"?>
<!-- Generator: Adobe Illustrator 22.1.0, SVG Export Plug-In . SVG Version: 6.00 Build 0)  -->
<svg version="1.1" id="&#x421;&#x43B;&#x43E;&#x439;_1"
	 xmlns="http://www.w3.org/2000/svg" xmlns:xlink="http://www.w3.org/1999/xlink" x="0px" y="0px" viewBox="0 0 100 99.3"
	 style="enable-background:new 0 0 100 99.3;" xml:space="preserve">
<path style="fill:#00AFF0;" d="M70.6,100c-4.4,0-8.7-1-12.6-2.8c-2.8,0.5-5.2,0.7-7.5,0.7c-26.4,0-48-21.3-48-47.4
	c0-2.5,0.3-5.2,0.8-8C1.1,38.3,0,33.7,0,29C0,13,13.2,0,29.4,0c5,0,10,1.3,14.3,3.7c2-0.3,4.2-0.4,6.7-0.4
	c12.8,0,24.8,4.9,33.8,13.8c9,8.9,14,20.8,14,33.4c0,3.3-0.2,6.2-0.7,8.8C99.2,63,100,66.9,100,71C100,87,86.8,100,70.6,100
	L70.6,100z M59.2,89l1.2,0.6c3.1,1.7,6.6,2.5,10.2,2.5c11.9,0,21.6-9.5,21.6-21.2c0-3.3-0.7-6.5-2.2-9.4l-0.6-1.3l0.3-1.4
	c0.5-2.4,0.8-5.1,0.8-8.5c0-21.7-17.9-39.3-39.9-39.3c-2.7,0-4.9,0.2-6.9,0.5l-1.5,0.2l-1.3-0.8c-3.4-2.1-7.4-3.3-11.5-3.3
	C17.5,7.8,7.8,17.3,7.8,29c0,3.8,1,7.5,3,10.7l0.8,1.3l-0.3,1.5c-0.6,2.9-0.9,5.5-0.9,7.9c0,21.8,18,39.6,40.1,39.6
	c2.1,0,4.5-0.2,7.4-0.8L59.2,89z M75.2,60.7c0-2.8-0.6-5.2-1.7-7.2c-1.1-1.9-2.7-3.6-4.6-4.8c-1.9-1.2-4.3-2.3-7-3.2
	c-2.7-0.9-5.7-1.6-9.1-2.4c-2.6-0.6-4.5-1.1-5.7-1.4c-1.1-0.3-2.2-0.7-3.3-1.3c-1-0.5-1.9-1.1-2.4-1.8c-0.5-0.7-1-1.4-1-2.4
	c0-1.5,1-2.8,2.7-3.9c1.8-1.2,4.2-1.6,7.1-1.6c3.2,0,5.5,0.4,6.8,1.5c1.4,1.1,2.7,2.6,3.7,4.5c0.9,1.5,1.7,2.6,2.4,3.2
	c0.8,0.7,2,1,3.5,1c1.7,0,3.1-0.5,4.2-1.7c1.1-1.2,1.9-2.5,1.9-3.9c0-1.5-0.6-3.1-1.5-4.6c-0.8-1.6-2.2-3.1-4-4.5
	c-1.8-1.4-4.1-2.5-6.8-3.4c-2.7-0.8-5.9-1.3-9.6-1.3c-4.6,0-8.6,0.6-12,1.9c-3.4,1.3-6.1,3.1-8,5.5c-1.9,2.4-2.9,5.2-2.9,8.2
	c0,3.2,1,6,2.8,8.2c1.7,2.2,4.1,3.9,7,5.1c2.9,1.2,6.5,2.3,10.7,3.2c3.1,0.7,5.7,1.3,7.5,1.9c1.8,0.6,3.3,1.4,4.4,2.4
	c1.1,1,1.6,2.3,1.6,3.9c0,2-1.1,3.7-3.1,5.1c-2.1,1.4-4.9,2-8.2,2c-2.5,0-4.5-0.2-6-0.9c-1.5-0.7-2.6-1.6-3.4-2.6
	c-0.8-1.1-1.6-2.5-2.4-4.2c-0.6-1.5-1.5-2.7-2.4-3.5c-1-0.8-2.2-1.3-3.6-1.3c-1.7,0-3.2,0.6-4.3,1.7c-1.1,1.1-1.7,2.4-1.7,3.8
	c0,2.4,0.9,4.9,2.6,7.4c1.7,2.5,4,4.5,6.7,6c3.8,2,8.8,3.1,14.7,3.1c4.9,0,9.2-0.8,12.8-2.2c3.6-1.5,6.4-3.6,8.3-6.3
	C74.2,67.1,75.2,64.1,75.2,60.7L75.2,60.7z"/>
</svg>
