<?xml version="1.0" encoding="iso-8859-1"?>
<!-- Generator: Adobe Illustrator 22.1.0, SVG Export Plug-In . SVG Version: 6.00 Build 0)  -->
<svg version="1.1" id="Layer_1" xmlns="http://www.w3.org/2000/svg" xmlns:xlink="http://www.w3.org/1999/xlink" x="0px" y="0px"
	 viewBox="0 0 30 30" style="enable-background:new 0 0 30 30;" xml:space="preserve">
<path style="fill:#1B7FBA;" d="M15,30c-4,0-7.8-1.6-10.6-4.4C1.6,22.8,0,19,0,15c0-4,1.6-7.8,4.4-10.6C7.2,1.6,11,0,15,0
	c4,0,7.8,1.6,10.6,4.4C28.4,7.2,30,11,30,15c0,4-1.6,7.8-4.4,10.6S19,30,15,30z M15,2.2C7.9,2.2,2.2,7.9,2.2,15
	c0,7.1,5.7,12.8,12.8,12.8S27.8,22.1,27.8,15C27.8,7.9,22.1,2.2,15,2.2z"/>
<g>
	<g>
		<path style="fill:#1B7FBA;" d="M18.5,22.7c-0.2,0-0.4,0-0.7-0.2c0,0-0.1,0-0.1-0.1L12,18.1l-2-1L6.5,16c0,0,0,0,0,0
			c-0.1,0-0.9-0.3-1-1.1c-0.1-0.6,0.5-1.1,1-1.2l13.9-5.5c0.2-0.1,1-0.4,1.5,0c0.2,0.1,0.4,0.4,0.4,0.9c0,0,0,0.1,0,0.1l-2.5,12.5
			c0,0,0,0.1,0,0.1c0,0.1-0.2,0.6-0.8,0.8C18.9,22.7,18.7,22.7,18.5,22.7z M18.3,21.6c0.1,0,0.2,0.1,0.3,0c0.1,0,0.2-0.1,0.2-0.2
			l2.4-12.3c-0.1,0-0.3,0.1-0.4,0.1c0,0,0,0,0,0L6.9,14.7c0,0,0,0,0,0c-0.1,0-0.1,0.1-0.2,0.1c0,0,0.1,0.1,0.2,0.1l3.5,1.2
			c0,0,0,0,0.1,0l2.1,1c0,0,0.1,0,0.1,0.1L18.3,21.6z"/>
	</g>
	<g>
		<path style="fill:#1B7FBA;" d="M14.4,19.4l-2.3,2.1c0,0.1-0.4,0.1-0.4,0l0.4-3.8l0-0.1c0,0,6.4-5.7,6.6-6c0.3-0.2,0.2-0.3,0.2-0.3
			c0-0.3-0.5,0-0.5,0l-8.4,5.3c0,0,1.1,3.5,1.3,4.1c0.2,0.7,0.3,0.6,0.4,0.6"/>
		<path style="fill:#1B7FBA;" d="M12,22c-0.1,0-0.2,0-0.3,0c-0.5,0-0.7-0.6-0.8-1c-0.2-0.7-1.2-4-1.3-4.1c-0.1-0.2,0-0.5,0.2-0.6
			l8.4-5.3c0,0,0,0,0,0c0.3-0.2,0.7-0.3,1-0.1c0.2,0.1,0.3,0.3,0.3,0.5c0,0,0,0.1,0,0.1c0,0.3-0.2,0.6-0.4,0.7
			c-0.2,0.2-5.5,5-6.5,5.8l-0.3,2.6l1.6-1.5c0.2-0.2,0.6-0.2,0.8,0c0.2,0.2,0.2,0.6,0,0.8l-2.2,2C12.5,21.9,12.3,22,12,22z
			 M10.8,16.9c0.2,0.5,0.5,1.5,0.7,2.3l0.2-1.6c0,0,0-0.1,0-0.1l0-0.1c0-0.1,0.1-0.2,0.1-0.2c1-0.9,2.4-2.1,3.6-3.2L10.8,16.9z"/>
	</g>
	<g>
		<path style="fill:#1B7FBA;" d="M14.4,19.9c-0.1,0-0.2,0-0.3-0.1l-2.2-1.7c-0.2-0.2-0.3-0.5-0.1-0.8c0.2-0.2,0.5-0.3,0.8-0.1
			l2.2,1.7c0.2,0.2,0.3,0.5,0.1,0.8C14.8,19.8,14.6,19.9,14.4,19.9z"/>
	</g>
</g>
</svg>
