<?xml version="1.0" encoding="iso-8859-1"?>
<!-- Generator: Adobe Illustrator 22.1.0, SVG Export Plug-In . SVG Version: 6.00 Build 0)  -->
<svg version="1.1" id="&#x421;&#x43B;&#x43E;&#x439;_1"
	 xmlns="http://www.w3.org/2000/svg" xmlns:xlink="http://www.w3.org/1999/xlink" x="0px" y="0px" viewBox="0 0 241.4 249.5"
	 style="enable-background:new 0 0 241.4 249.5;" xml:space="preserve">
<g>
	<path style="fill:#665CAC;" d="M236,60l-0.1-0.3c-5.8-23.5-32.1-48.8-56.2-54.1l-0.3-0.1c-39-7.4-78.5-7.4-117.5,0l-0.3,0.1
		C37.6,10.9,11.3,36.2,5.5,59.7L5.4,60c-7.2,32.9-7.2,66.2,0,99.1l0.1,0.3c5.6,22.5,29.9,46.6,53.1,53.3v26.3
		c0,9.5,11.6,14.2,18.2,7.3l26.6-27.7c5.8,0.3,11.6,0.5,17.3,0.5c19.6,0,39.3-1.9,58.8-5.6l0.3-0.1c24.1-5.3,50.4-30.5,56.2-54.1
		l0.1-0.3C243.2,126.2,243.2,92.9,236,60L236,60z M214.9,154.3c-3.9,15.4-23.8,34.5-39.7,38c-20.7,3.9-41.6,5.6-62.5,5.1
		c-0.4,0-0.8,0.1-1.1,0.4c-3,3-19.4,20-19.4,20L71.5,239c-1.5,1.6-4.2,0.5-4.2-1.7v-43.5c0-0.7-0.5-1.3-1.2-1.5l0,0
		c-15.8-3.5-35.8-22.6-39.7-38c-6.5-29.7-6.5-59.8,0-89.6c3.9-15.4,23.8-34.5,39.7-38c36.2-6.9,72.9-6.9,109.1,0
		c15.8,3.5,35.8,22.6,39.7,38C221.4,94.5,221.4,124.6,214.9,154.3L214.9,154.3z M214.9,154.3"/>
	<path style="fill:#665CAC;" d="M155.2,174.4c-2.4-0.7-4.8-1.2-6.9-2.1c-22.3-9.3-42.9-21.2-59.2-39.5
		c-9.3-10.4-16.5-22.2-22.6-34.6c-2.9-5.9-5.4-12-7.8-18.1c-2.3-5.6,1.1-11.3,4.6-15.5c3.3-3.9,7.6-6.9,12.2-9.2
		c3.6-1.7,7.2-0.7,9.8,2.3c5.7,6.6,10.9,13.5,15.1,21.2c2.6,4.7,1.9,10.5-2.8,13.7c-1.1,0.8-2.2,1.7-3.3,2.6
		c-0.9,0.8-1.8,1.6-2.5,2.6c-1.2,1.9-1.2,4.2-0.5,6.2c5.8,16,15.6,28.4,31.7,35.1c2.6,1.1,5.2,2.3,8.1,2c5-0.6,6.6-6,10.1-8.9
		c3.4-2.8,7.7-2.8,11.4-0.5c3.7,2.3,7.2,4.8,10.7,7.3c3.5,2.5,6.9,4.9,10.1,7.7c3.1,2.7,4.1,6.3,2.4,9.9
		c-3.2,6.7-7.8,12.3-14.4,15.9C159.5,173.4,157.3,173.8,155.2,174.4C152.7,173.7,157.3,173.8,155.2,174.4L155.2,174.4z M155.2,174.4
		"/>
	<path style="fill:#665CAC;" d="M120.8,47.6c29.2,0.8,53.2,20.2,58.3,49.1c0.9,4.9,1.2,10,1.6,14.9c0.2,2.1-1,4.1-3.3,4.1
		c-2.3,0-3.4-1.9-3.5-4c-0.3-4.2-0.5-8.3-1.1-12.5c-3-21.8-20.4-39.8-42-43.6c-3.3-0.6-6.6-0.7-9.9-1.1c-2.1-0.2-4.8-0.3-5.3-2.9
		c-0.4-2.2,1.4-3.9,3.5-4C119.6,47.6,120.2,47.6,120.8,47.6C150,48.5,120.2,47.6,120.8,47.6L120.8,47.6z M120.8,47.6"/>
	<path style="fill:#665CAC;" d="M165.2,105.2c0,0.4-0.1,1.2-0.3,2c-0.8,2.9-5.2,3.3-6.2,0.3c-0.3-0.9-0.3-1.9-0.4-2.8
		c0-6.2-1.4-12.4-4.5-17.8c-3.2-5.5-8.1-10.2-13.9-13c-3.5-1.7-7.2-2.8-11-3.4c-1.7-0.3-3.3-0.4-5-0.7c-2-0.3-3.1-1.6-3-3.6
		c0.1-1.9,1.5-3.2,3.5-3.1c6.7,0.4,13.2,1.8,19.1,5c12.1,6.4,19,16.6,21.1,30.1c0.1,0.6,0.2,1.2,0.3,1.8
		C165,101.7,165,103.2,165.2,105.2C165.1,105.6,165,103.2,165.2,105.2L165.2,105.2z M165.2,105.2"/>
	<path style="fill:#665CAC;" d="M147,104.5c-2.4,0-3.8-1.3-4-3.6c-0.2-1.6-0.3-3.1-0.7-4.7c-0.7-3-2.3-5.8-4.8-7.6
		c-1.2-0.9-2.5-1.5-3.9-1.9c-1.8-0.5-3.7-0.4-5.4-0.8c-1.9-0.5-3-2-2.7-3.9c0.3-1.7,1.9-2.9,3.7-2.8c11.3,0.8,19.4,6.7,20.6,20
		c0.1,0.9,0.2,1.9,0,2.8C149.2,103.6,148.1,104.4,147,104.5C144.5,104.5,148.1,104.4,147,104.5L147,104.5z M147,104.5"/>
</g>
</svg>
