<?xml version="1.0" encoding="iso-8859-1"?>
<!-- Generator: Adobe Illustrator 22.1.0, SVG Export Plug-In . SVG Version: 6.00 Build 0)  -->
<svg version="1.1" id="Layer_1" xmlns="http://www.w3.org/2000/svg" xmlns:xlink="http://www.w3.org/1999/xlink" x="0px" y="0px"
	 viewBox="0 0 169.6 170.1" style="enable-background:new 0 0 169.6 170.1;" xml:space="preserve">
<path style="fill:#4680C2;" d="M128.4,62.7c0.7-2.2,0-3.8-3.1-3.8H115c-2.6,0-3.8,1.4-4.5,2.9c0,0-5.3,12.8-12.7,21.1
	c-2.4,2.4-3.5,3.2-4.8,3.2c-0.7,0-1.6-0.8-1.6-3V62.6c0-2.6-0.8-3.8-3-3.8H72.2c-1.6,0-2.6,1.2-2.6,2.4c0,2.5,3.7,3.1,4.1,10.1v15.2
	c0,3.3-0.6,3.9-1.9,3.9c-3.5,0-12-12.9-17.1-27.6c-1-2.9-2-4-4.6-4H39.7c-3,0-3.5,1.4-3.5,2.9c0,2.7,3.5,16.3,16.3,34.3
	c8.5,12.3,20.6,18.9,31.5,18.9c6.6,0,7.4-1.5,7.4-4v-9.3c0-3,0.6-3.5,2.7-3.5c1.5,0,4.2,0.8,10.3,6.7c7,7,8.2,10.2,12.1,10.2h10.3
	c3,0,4.4-1.5,3.6-4.4c-0.9-2.9-4.3-7.1-8.7-12.1c-2.4-2.8-6-5.9-7.1-7.4c-1.5-2-1.1-2.8,0-4.6C114.5,86.5,127.1,68.7,128.4,62.7"/>
<g id="WA_Logo">
	<g>
		<path style="fill-rule:evenodd;clip-rule:evenodd;fill:#4680C2;" d="M144.7,24.9C128.7,8.9,107.3,0,84.6,0c-46.9,0-85,38.1-85,85
			c0,15,3.9,29.6,11.3,42.5l-5.7,17.1c-2.7,8.1,3.5,16.4,12.1,16.1l26.6-1c12.4,6.8,26.4,10.3,40.6,10.3h0c0,0,0,0,0,0
			c46.8,0,85-38.1,85-85C169.6,62.3,160.8,41,144.7,24.9z M84.6,155.7L84.6,155.7c-12.7,0-25.1-3.4-36-9.8l-2.6-1.5l-20,1.3
			c-2.8,0.2-5-2.5-4.2-5.3l4.6-15.1l-1.7-2.7C17.7,111.3,13.9,98.3,13.9,85c0-39,31.7-70.6,70.7-70.6c18.9,0,36.6,7.4,49.9,20.7
			c13.3,13.4,20.7,31.1,20.7,50C155.2,124,123.5,155.7,84.6,155.7z"/>
	</g>
</g>
</svg>
